PathFileType	4	(X/Y/Z)	markers.trc																																																																																																																																																																
DataRate	CameraRate	NumFrames	NumMarkers	Units	OrigDataRate	OrigDataStartFrame	OrigNumFrames																																																																																																																																																												
200	200	4	54	mm	200	1073	100																																																																																																																																																												
Frame#	Time	FHD			LBHD			RBHD			C7			T10			CLAV			LSHO			LUUPA			LMUPA			LDUPA			LLEP			LMEP			LRAD			LUL			LRFIN			RSHO			RUPA1			RMUPA			RDUPA			RLEP			RMEP			RRAD			RUL			RUFIN			RASI			USACR			LSACR			RSACR			LTHI1			LTHI2			LTHI3			LTHI4			LTIB1			LTIB2			LTIB3			LTIB4			LLMAL			LHEE			LMT1			LMT2			RTHI			RTHI2			RTHI3			RTHI4			RLFC			RTIB1			RTIB2			RTIB3			RTIB4			RLMAL			RHEE			RMT1			RMT2			RMT5		
		X1	Y1	Z1	X2	Y2	Z2	X3	Y3	Z3	X4	Y4	Z4	X5	Y5	Z5	X6	Y6	Z6	X7	Y7	Z7	X8	Y8	Z8	X9	Y9	Z9	X10	Y10	Z10	X11	Y11	Z11	X12	Y12	Z12	X13	Y13	Z13	X14	Y14	Z14	X15	Y15	Z15	X16	Y16	Z16	X17	Y17	Z17	X18	Y18	Z18	X19	Y19	Z19	X20	Y20	Z20	X21	Y21	Z21	X22	Y22	Z22	X23	Y23	Z23	X24	Y24	Z24	X25	Y25	Z25	X26	Y26	Z26	X27	Y27	Z27	X28	Y28	Z28	X29	Y29	Z29	X30	Y30	Z30	X31	Y31	Z31	X32	Y32	Z32	X33	Y33	Z33	X34	Y34	Z34	X35	Y35	Z35	X36	Y36	Z36	X37	Y37	Z37	X38	Y38	Z38	X39	Y39	Z39	X40	Y40	Z40	X41	Y41	Z41	X42	Y42	Z42	X43	Y43	Z43	X44	Y44	Z44	X45	Y45	Z45	X46	Y46	Z46	X47	Y47	Z47	X48	Y48	Z48	X49	Y49	Z49	X50	Y50	Z50	X51	Y51	Z51	X52	Y52	Z52	X53	Y53	Z53	X54	Y54	Z54
																																																																																																																																																																			
1073	5.36	95.75731	1612.412739	343.514732	-85.90182	1607.730393	258.798546	-42.501109	1594.075519	376.960612	-131.290155	1458.878239	297.187989	-265.243585	1136.200975	279.637047	-7.654173	1343.199977	275.764752	-55.164808	1403.889693	130.493222	-200.143197	1307.242354	18.452863	-189.075285	1258.436891	18.07739	-244.413721	1260.570741	-6.709227	-330.725656	1184.899895	-38.196504	-372.032428	1193.002253	21.679244	-352.553224	936.996242	25.123096	-407.385586	929.248546	-25.836976	-312.951988	886.410894	-4.661716	-62.13257	1418.790856	436.551746	-52.854462	1262.619018	526.502431	-10.244878	1243.737772	518.216552	-40.771841	1198.350039	546.825982	21.937917	1072.021772	561.37294	4.776848	1047.069043	496.970065	217.245432	1200.892715	442.237944	254.159333	1154.715271	476.439193	263.003576	1255.541923	476.905892	-144.420653	931.502014	401.09138	-296.499283	1055.349729	278.640566	-305.953276	1022.467778	252.176136	-307.818622	1026.874294	311.001743	-77.637139	768.275896	92.176882	3.885004	741.032858	94.622502	32.870998	771.130985	118.29485	23.791736	682.326917	95.144342	34.42516	472.739714	149.525517	-34.435844	507.582798	102.625541	-19.253227	471.980662	121.041767	-88.872691	429.279994	151.171705	-251.089585	403.607892	138.437914	-332.084072	437.705105	187.553185	-214.340317	248.832452	188.458157	-207.880822	254.143557	142.243267	-229.113004	690.002474	464.606697	-201.034649	631.838039	464.051812	-168.50788	625.195648	456.266492	-244.269979	559.883212	444.966777	-240.149101	446.28284	421.88361	-334.765617	261.15209	356.536385	-438.488814	243.49817	388.582472	-406.86395	215.432535	368.762227	-432.569727	180.873588	331.267933	-538.414139	144.106562	356.866782	-623.72563	135.26577	310.417742	-419.399154	54.084026	282.144628	-419.90279	51.002415	322.169948	-464.51395	40.166929	379.191034
1074	5.365	124.78026	1615.973214	342.704588	-57.028233	1611.193457	258.243553	-13.342817	1597.159403	376.225464	-101.86183	1460.99664	296.684009	-231.886855	1136.637375	281.053899	22.744616	1347.537535	273.870926	-27.322763	1407.985535	129.318088	-173.881624	1314.743419	17.84834	-163.854663	1265.716659	17.174109	-219.218597	1269.056197	-7.265513	-307.983113	1195.660407	-38.159987	-348.54676	1205.059608	21.853556	-332.850805	948.357507	25.601063	-388.35645	941.32723	-24.707288	-294.287492	897.042212	-4.388056	-31.245003	1423.811614	434.225714	-15.066368	1269.6522	525.237896	27.937717	1252.313027	516.26116	0.123532	1206.197498	545.755518	67.334414	1082.577028	560.124917	50.393474	1056.472648	495.831787	250.053162	1224.62828	435.659009	290.705837	1181.67318	469.532582	292.435949	1282.845622	469.013783	-110.304977	930.874415	401.361197	-262.118396	1056.11823	279.836957	-271.826627	1023.398736	253.25732	-273.311188	1027.445836	312.071623	-39.88974	775.499983	92.89276	42.414306	750.811636	96.036178	70.117663	782.007535	120.035627	64.170749	692.696367	97.030721	85.848635	478.925002	150.67096	14.154065	509.379917	103.839708	31.738719	474.82872	121.814097	-34.483888	426.917889	151.425908	-194.468347	389.240954	138.441106	-278.100091	416.925687	187.218281	-146.182087	237.353597	188.246972	-139.997707	243.264892	142.318047	-202.344335	690.699664	464.359388	-176.565586	631.46604	463.612202	-144.392868	623.679245	455.645121	-223.362058	561.304488	445.642501	-224.01609	447.684905	422.203759	-323.523425	264.357598	358.104935	-427.475936	249.647909	390.578879	-396.544128	220.517465	370.936229	-422.989187	186.022696	333.816026	-529.895813	151.640415	359.471769	-615.264069	147.52289	313.460082	-417.985316	54.129448	282.630001	-418.056671	50.799614	322.433063	-462.538811	41.467205	379.577257
1075	5.37	153.767143	1619.644807	341.856512	-28.100406	1614.645724	257.511998	15.765108	1600.317057	375.348152	-72.284374	1463.193328	296.056597	-198.365436	1137.236328	282.662393	53.170228	1351.989675	271.95238	0.767213	1412.066996	128.199331	-147.237061	1322.321811	17.362308	-138.315175	1273.11855	16.446419	-193.703427	1277.668402	-7.559637	-284.990095	1206.552127	-37.637756	-324.506767	1216.946491	22.744659	-312.00165	959.603849	26.035904	-368.385527	953.275929	-23.377516	-274.498617	907.759001	-4.509543	-0.49354	1428.868027	431.821121	22.272232	1277.031703	523.917561	65.562332	1261.183353	514.174077	40.584496	1214.57382	544.795855	111.614885	1093.50639	558.983733	94.732026	1066.182024	494.936958	281.004175	1247.275363	429.411952	325.008015	1207.667665	462.88183	319.958047	1308.69749	461.430271	-75.831014	930.560228	401.589468	-227.492524	1057.047426	281.189424	-237.47922	1024.515344	254.477252	-238.53766	1028.150175	313.265223	-2.489272	782.609389	93.491604	80.365603	760.048965	97.237551	106.910329	792.164953	121.532605	103.655503	702.471673	98.700318	136.479197	484.750956	151.669031	62.277685	510.502264	104.807974	82.14132	477.296562	122.41926	19.858298	424.372825	151.712549	-137.034773	374.784756	138.643089	-222.787951	395.921848	187.023104	-77.497867	226.742571	188.644661	-71.621869	233.148522	142.982247	-175.061807	691.878361	464.096845	-151.558621	631.680531	462.982877	-119.802877	622.856247	454.787176	-201.730354	563.399436	446.117228	-207.219664	450.07817	422.290803	-311.393651	268.376262	359.669392	-415.459302	256.391293	392.616497	-385.186221	226.27487	373.162495	-412.304941	191.765348	336.506101	-520.176187	159.621385	362.31988	-605.353566	160.449171	316.853686	-416.172523	54.603761	283.288181	-415.799972	50.966097	322.85445	-460.002792	43.325291	380.098307
1076	5.375	182.726251	1623.369005	340.981503	0.898598	1618.03474	256.59395	44.823174	1603.501105	374.327512	-42.567209	1465.427349	295.316731	-164.697914	1137.9872	284.429436	83.618934	1356.464615	270.033313	29.13053	1416.097932	127.135386	-120.242032	1329.95473	17.01655	-112.468447	1280.610854	15.884108	-167.89921	1286.388166	-7.564475	-261.7081	1217.517816	-36.631423	-299.889918	1228.548974	24.345373	-290.033191	970.615501	26.386469	-347.469337	964.992862	-21.919021	-253.60268	918.44549	-5.065245	30.130276	1433.888507	429.362058	59.12575	1284.641479	522.551488	102.604605	1270.2162	511.994235	80.517153	1223.325494	543.915279	154.72543	1104.627024	558.003619	137.76091	1075.99238	494.318447	310.282065	1268.637593	423.559405	357.257334	1232.437481	456.539752	345.810997	1332.898529	454.218281	-41.060742	930.596263	401.810198	-192.659331	1058.139457	282.653204	-202.933728	1025.807588	255.798802	-203.549448	1028.99919	314.542805	34.548657	789.491869	94.01002	117.76627	768.629001	98.237374	143.305199	801.498539	122.775048	142.286964	711.517624	100.156973	186.284433	490.127648	152.539328	110.010897	510.861248	105.529428	131.97962	479.30732	122.877541	74.148633	421.621889	152.067998	-78.793562	360.328782	139.023233	-166.154849	374.853099	186.91722	-8.439896	217.082896	189.693431	-2.879554	223.849543	144.267225	-147.280409	693.499808	463.822415	-126.021733	632.438247	462.17253	-94.737126	622.677578	453.718151	-179.355074	566.113323	446.357549	-189.69111	453.400246	422.125516	-298.302412	273.164587	361.17719	-402.390241	263.687284	394.632871	-372.741896	232.671765	375.373959	-400.488033	198.088835	339.255748	-509.225579	168.060347	365.339266	-593.931912	173.993201	320.513341	-413.793454	55.665233	284.139963	-412.994831	51.649353	323.472861	-456.806659	45.911525	380.771501
